<svg width="17" height="17" viewBox="0 0 17 17" fill="none" xmlns="http://www.w3.org/2000/svg">
<g clip-path="url(#clip0)">
<path d="M15.7556 1.54547H3.0909C3.05276 1.54547 3.01795 1.55981 2.9822 1.57057L2.67091 0.547635C2.57192 0.222328 2.27186 0 1.93181 0H0.386376C0.172994 0 0 0.172994 0 0.386376V1.15909C0 1.37247 0.172994 1.54547 0.386376 1.54547H1.35947L3.7735 9.47836L2.8719 10.5302C2.51556 10.9459 2.35509 11.5187 2.5191 12.0411C2.72886 12.7092 3.31852 13.1363 3.99836 13.1363H15.0682C15.2816 13.1363 15.4546 12.9634 15.4546 12.75V11.9773C15.4546 11.7639 15.2816 11.5909 15.0682 11.5909H3.99832L5.22308 10.162C5.25387 10.1261 5.27651 10.0855 5.29987 10.0454H12.787C13.3858 10.0454 13.9308 9.69957 14.1858 9.15773L16.8819 3.42856C16.9593 3.26368 17 3.08069 17 2.89918V2.78975C17 2.10259 16.4429 1.54547 15.7556 1.54547Z" fill="#FFFFFF"/>
<path d="M4.63635 17C5.48989 17 6.18182 16.3081 6.18182 15.4545C6.18182 14.601 5.48989 13.9091 4.63635 13.9091C3.78281 13.9091 3.09088 14.601 3.09088 15.4545C3.09088 16.3081 3.78281 17 4.63635 17Z" fill="#FFFFFF"/>
<path d="M13.9091 17C14.7627 17 15.4546 16.3081 15.4546 15.4545C15.4546 14.601 14.7627 13.9091 13.9091 13.9091C13.0556 13.9091 12.3636 14.601 12.3636 15.4545C12.3636 16.3081 13.0556 17 13.9091 17Z" fill="#FFFFFF"/>
</g>
<defs>
<clipPath id="clip0">
<rect width="17" height="17" fill="#FFFFFF"/>
</clipPath>
</defs>
</svg>
