<svg width="38" height="38" viewBox="0 0 38 38" fill="none" xmlns="http://www.w3.org/2000/svg">
<g clip-path="url(#clip0)">
<path d="M35.4733 19.4922C35.3204 19.1793 35.3204 18.8206 35.4733 18.5078L36.8905 15.6085C37.6796 13.9942 37.0544 12.0701 35.4672 11.2279L32.6165 9.71533C32.3089 9.5522 32.098 9.26185 32.0379 8.91904L31.4803 5.74034C31.1699 3.97053 29.5328 2.78126 27.754 3.03293L24.5587 3.48492C24.2138 3.53361 23.8727 3.42273 23.6225 3.1807L21.3031 0.936934C20.0117 -0.312457 17.9885 -0.312531 16.6971 0.936934L14.3776 3.18092C14.1273 3.42303 13.7863 3.53368 13.4415 3.48515L10.2462 3.03316C8.46678 2.78133 6.83027 3.97076 6.51982 5.74057L5.96229 8.91911C5.9021 9.262 5.69124 9.55227 5.38376 9.71548L2.53303 11.228C0.945797 12.0701 0.320582 13.9944 1.10967 15.6087L2.52687 18.508C2.67976 18.8208 2.67976 19.1796 2.52687 19.4923L1.1096 22.3916C0.320507 24.0059 0.945723 25.93 2.53296 26.7722L5.38368 28.2847C5.69124 28.4479 5.9021 28.7382 5.96229 29.081L6.51982 32.2597C6.80244 33.8709 8.18394 35.0008 9.77169 35.0006C9.92807 35.0006 10.0867 34.9896 10.2462 34.9671L13.4416 34.5151C13.7862 34.4662 14.1274 34.5773 14.3777 34.8193L16.6971 37.0631C17.3429 37.6878 18.1714 38.0002 19.0001 38.0001C19.8286 38 20.6575 37.6877 21.3031 37.0631L23.6225 34.8193C23.8728 34.5773 24.2139 34.4667 24.5587 34.5151L27.754 34.9671C29.5336 35.2188 31.1699 34.0295 31.4803 32.2597L32.0379 29.0811C32.0981 28.7382 32.309 28.448 32.6165 28.2847L35.4672 26.7722C37.0544 25.9301 37.6796 24.0058 36.8905 22.3915L35.4733 19.4922ZM14.6167 9.13746C16.8322 9.13746 18.6348 10.94 18.6348 13.1556C18.6348 15.3711 16.8322 17.1737 14.6167 17.1737C12.4011 17.1737 10.5986 15.3711 10.5986 13.1556C10.5986 10.94 12.4011 9.13746 14.6167 9.13746ZM12.5427 27.007C12.3287 27.221 12.0483 27.328 11.7679 27.328C11.4875 27.328 11.2069 27.2211 10.993 27.007C10.5651 26.5791 10.5651 25.8852 10.993 25.4573L25.4574 10.9929C25.8852 10.565 26.5792 10.565 27.0071 10.9929C27.4351 11.4209 27.4351 12.1147 27.0071 12.5427L12.5427 27.007ZM23.3833 28.8626C21.1678 28.8626 19.3652 27.0601 19.3652 24.8445C19.3652 22.6289 21.1678 20.8264 23.3833 20.8264C25.5989 20.8264 27.4014 22.6289 27.4014 24.8445C27.4014 27.0601 25.5989 28.8626 23.3833 28.8626Z" fill="white"/>
<path d="M23.3834 23.0182C22.3763 23.0182 21.5569 23.8375 21.5569 24.8445C21.5569 25.8516 22.3762 26.6709 23.3834 26.6709C24.3905 26.6709 25.2098 25.8516 25.2098 24.8445C25.2098 23.8375 24.3905 23.0182 23.3834 23.0182Z" fill="white"/>
<path d="M14.6166 11.3291C13.6095 11.3291 12.7902 12.1484 12.7902 13.1555C12.7902 14.1626 13.6095 14.982 14.6166 14.982C15.6237 14.982 16.443 14.1627 16.443 13.1555C16.443 12.1485 15.6237 11.3291 14.6166 11.3291Z" fill="white"/>
</g>
<defs>
<clipPath id="clip0">
<rect width="38" height="38" fill="white"/>
</clipPath>
</defs>
</svg>
