<svg width="20" height="20" viewBox="0 0 20 20" fill="none" xmlns="http://www.w3.org/2000/svg">
<path d="M12.8055 0H7.20575C3.62048 0 0.640286 2.64014 0.107461 6.07845C0.0715698 6.31001 0.249464 6.5195 0.483754 6.5195H19.5274C19.7617 6.5195 19.9396 6.31001 19.9037 6.07845C19.3709 2.64014 16.3907 0 12.8055 0ZM7.50346 2.49013C7.24433 2.74926 6.82418 2.74926 6.56505 2.49013C6.30593 2.231 6.30593 1.81085 6.56505 1.55172C6.82418 1.2926 7.24433 1.2926 7.50346 1.55172C7.76263 1.81085 7.76263 2.231 7.50346 2.49013ZM10.4896 4.7805C10.2305 5.03963 9.81035 5.03963 9.55122 4.7805C9.2921 4.52137 9.2921 4.10122 9.55122 3.84209C9.81035 3.58296 10.2305 3.58296 10.4896 3.84209C10.7488 4.10122 10.7488 4.52137 10.4896 4.7805ZM13.4758 2.49013C13.2167 2.74926 12.7965 2.74926 12.5374 2.49013C12.2782 2.231 12.2782 1.81085 12.5374 1.55172C12.7965 1.2926 13.2166 1.2926 13.4758 1.55172C13.735 1.81085 13.735 2.231 13.4758 2.49013Z" fill="white"/>
<path d="M1.04382 14.1846V15.5435H18.7792V14.1846H6.67767C6.23061 14.5518 5.67533 14.7515 5.08896 14.7515C4.48873 14.7515 3.93642 14.5387 3.50369 14.1846H1.04382Z" fill="white"/>
<path d="M3.81555 20H16.2522C17.9382 20 19.3708 18.8941 19.8628 17.3697C19.9423 17.1233 19.7594 16.8706 19.5005 16.8706H0.567245C0.308311 16.8706 0.125379 17.1233 0.204933 17.3697C0.696985 18.8941 2.12955 20 3.81555 20Z" fill="white"/>
<path d="M1.22078 9.10248H2.36337C3.20761 9.10248 3.89732 9.7893 3.90088 10.6335L3.90767 12.248C3.91041 12.8966 4.44034 13.4243 5.08896 13.4243C5.40546 13.4243 5.70271 13.3008 5.92602 13.0765C6.14934 12.8523 6.27154 12.5545 6.27021 12.238L6.26357 10.6464C6.26182 10.2346 6.42093 9.84694 6.71153 9.55509C7.00218 9.26319 7.38913 9.10244 7.80104 9.10244H18.7792C18.7905 9.10244 18.8015 9.10315 18.8127 9.1033V7.84656H1.04382V9.10932C1.10237 9.10529 1.16122 9.10248 1.22078 9.10248Z" fill="white"/>
<path d="M18.7792 12.8574C19.4486 12.8574 19.9931 12.3128 19.9931 11.6435C19.9931 10.9741 19.4486 10.4296 18.7792 10.4296H7.80104C7.725 10.4296 7.67497 10.4683 7.65197 10.4915C7.62893 10.5146 7.59038 10.5648 7.59069 10.6408L7.59733 12.2324C7.59823 12.446 7.57261 12.6555 7.52203 12.8574H18.7792Z" fill="white"/>
<path d="M2.65687 12.8574C2.60781 12.6639 2.58141 12.4617 2.58051 12.2535L2.57372 10.6391C2.57325 10.5236 2.47886 10.4296 2.36333 10.4296H1.22078C0.551423 10.4296 0.00688171 10.9741 0.00688171 11.6435C0.00688171 12.3128 0.551423 12.8574 1.22078 12.8574H2.65687Z" fill="white"/>
</svg>
